<?xml version="1.0" encoding="UTF-8" standalone="no"?>
<svg
	width="14607.000000" 
	height="13474.000000"
	viewBox="-7284.000000 -751.000000 14607.000000 13474.000000"
	version="1.1"
	xmlns="http://www.w3.org/2000/svg"
	xmlns:svg="http://www.w3.org/2000/svg">
<path d="M 4.000000 730.000000 622.000000 753.000000 L 622.000000 753.000000 854.000000 748.000000 L 854.000000 748.000000 919.000000 751.000000 L 919.000000 751.000000 910.000000 855.000000 L 910.000000 855.000000 926.000000 952.000000 L 926.000000 952.000000 951.000000 964.000000 L 951.000000 964.000000 1062.000000 969.000000 L 1062.000000 969.000000 1072.000000 992.000000 L 1072.000000 992.000000 1063.000000 1005.000000 L 1063.000000 1005.000000 959.000000 1003.000000 L 959.000000 1003.000000 920.000000 1052.000000 L 920.000000 1052.000000 939.000000 1200.000000 L 939.000000 1200.000000 935.000000 1412.000000 L 935.000000 1412.000000 950.000000 1606.000000 L 950.000000 1606.000000 985.000000 1793.000000 L 985.000000 1793.000000 1007.000000 1975.000000 L 1007.000000 1975.000000 993.000000 2095.000000 L 993.000000 2095.000000 1030.000000 2115.000000 L 1030.000000 2115.000000 1153.000000 2101.000000 L 1153.000000 2101.000000 1204.000000 2101.000000 L 1204.000000 2101.000000 1205.000000 2146.000000 L 1205.000000 2146.000000 1239.000000 2217.000000 L 1239.000000 2217.000000 1295.000000 2322.000000 L 1295.000000 2322.000000 1316.000000 2446.000000 L 1316.000000 2446.000000 1283.000000 2533.000000 L 1283.000000 2533.000000 1165.000000 2558.000000 L 1165.000000 2558.000000 977.000000 2642.000000 L 977.000000 2642.000000 616.000000 2519.000000 L 616.000000 2519.000000 347.000000 2579.000000 L 347.000000 2579.000000 277.000000 2733.000000 L 277.000000 2733.000000 212.000000 2791.000000 L 212.000000 2791.000000 125.000000 2809.000000 L 125.000000 2809.000000 81.000000 2872.000000 L 81.000000 2872.000000 57.000000 2976.000000 L 57.000000 2976.000000 79.000000 3075.000000 L 79.000000 3075.000000 299.000000 3078.000000 L 299.000000 3078.000000 424.000000 3108.000000 L 424.000000 3108.000000 527.000000 3081.000000 L 527.000000 3081.000000 840.000000 3049.000000 L 840.000000 3049.000000 1136.000000 2964.000000 L 1136.000000 2964.000000 1321.000000 2968.000000 L 1321.000000 2968.000000 1388.000000 2968.000000 L 1388.000000 2968.000000 1389.000000 3016.000000 L 1389.000000 3016.000000 1359.000000 3144.000000 L 1359.000000 3144.000000 966.000000 3330.000000 L 966.000000 3330.000000 846.000000 3522.000000 L 846.000000 3522.000000 842.000000 3724.000000 L 842.000000 3724.000000 866.000000 3968.000000 L 866.000000 3968.000000 766.000000 4233.000000 L 766.000000 4233.000000 718.000000 4537.000000 L 718.000000 4537.000000 752.000000 4804.000000 L 752.000000 4804.000000 743.000000 5030.000000 L 743.000000 5030.000000 802.000000 5190.000000 L 802.000000 5190.000000 794.000000 5494.000000 L 794.000000 5494.000000 1344.000000 5505.000000 L 1344.000000 5505.000000 1354.000000 5372.000000 L 1354.000000 5372.000000 1409.000000 5089.000000 L 1409.000000 5089.000000 1443.000000 4905.000000 L 1443.000000 4905.000000 1396.000000 4752.000000 L 1396.000000 4752.000000 1332.000000 4677.000000 L 1332.000000 4677.000000 1326.000000 4524.000000 L 1326.000000 4524.000000 1397.000000 4533.000000 L 1397.000000 4533.000000 1995.000000 5332.000000 L 1995.000000 5332.000000 2011.000000 5380.000000 L 2011.000000 5380.000000 1990.000000 5438.000000 L 1990.000000 5438.000000 1923.000000 5449.000000 L 1923.000000 5449.000000 1896.000000 5407.000000 L 1896.000000 5407.000000 1861.000000 5401.000000 L 1861.000000 5401.000000 1715.000000 5415.000000 L 1715.000000 5415.000000 1582.000000 5521.000000 L 1582.000000 5521.000000 1482.000000 5668.000000 L 1482.000000 5668.000000 1278.000000 5749.000000 L 1278.000000 5749.000000 927.000000 5791.000000 L 927.000000 5791.000000 499.000000 5806.000000 L 499.000000 5806.000000 229.000000 5700.000000 L 229.000000 5700.000000 -14.000000 5508.000000 L -14.000000 5508.000000 -25.000000 5132.000000 L -25.000000 5132.000000 123.000000 4391.000000 L 123.000000 4391.000000 77.000000 3754.000000 L 77.000000 3754.000000 -22.000000 3584.000000 L -22.000000 3584.000000 -29.000000 3421.000000 L -29.000000 3421.000000 -260.000000 3421.000000 L -260.000000 3421.000000 -258.000000 3538.000000 L -258.000000 3538.000000 -331.000000 3595.000000 L -331.000000 3595.000000 -541.000000 3700.000000 L -541.000000 3700.000000 -533.000000 3910.000000 L -533.000000 3910.000000 -628.000000 4081.000000 L -628.000000 4081.000000 -814.000000 4358.000000 L -814.000000 4358.000000 -909.000000 4651.000000 L -909.000000 4651.000000 -1265.000000 4689.000000 L -1265.000000 4689.000000 -1462.000000 4443.000000 L -1462.000000 4443.000000 -1208.000000 4226.000000 L -1208.000000 4226.000000 -1209.000000 3965.000000 L -1209.000000 3965.000000 -1215.000000 3382.000000 L -1215.000000 3382.000000 -1172.000000 2944.000000 L -1172.000000 2944.000000 -1391.953125 2595.770996 L -1391.953125 2595.770996 -1483.000000 2059.000000 L -1483.000000 2059.000000 -2050.000000 1959.000000 L -2050.000000 1959.000000 -3173.000000 1998.000000 L -3173.000000 1998.000000 -3679.000000 1625.000000 L -3679.000000 1625.000000 -4924.000000 1792.000000 L -4924.000000 1792.000000 -5803.000000 1837.000000 L -5803.000000 1837.000000 -5883.000000 -221.000000 L -5883.000000 -221.000000 -1297.000000 -208.000000 L -1297.000000 -208.000000 -458.000000 -186.000000 L -458.000000 -186.000000 -131.000000 -311.000000 L -131.000000 -311.000000 -6.000000 -186.000000 L -6.000000 -186.000000 Z" fill="#cccccc" stroke="#000000" stroke-width="2"/>
<path d="M 845.000000 -100.000000 746.000000 -70.000000 L 746.000000 -70.000000 752.000000 33.000000 L 752.000000 33.000000 703.000000 155.000000 L 703.000000 155.000000 797.000000 246.000000 L 797.000000 246.000000 853.000000 342.000000 L 853.000000 342.000000 969.000000 452.000000 L 969.000000 452.000000 1098.000000 474.000000 L 1098.000000 474.000000 1136.000000 645.000000 L 1136.000000 645.000000 1184.000000 684.000000 L 1184.000000 684.000000 1257.000000 647.000000 L 1257.000000 647.000000 1310.000000 568.000000 L 1310.000000 568.000000 1254.000000 444.000000 L 1254.000000 444.000000 1205.000000 267.000000 L 1205.000000 267.000000 1123.000000 171.000000 L 1123.000000 171.000000 1189.000000 26.000000 L 1189.000000 26.000000 1333.000000 -151.000000 L 1333.000000 -151.000000 1721.000000 -318.000000 L 1721.000000 -318.000000 2137.000000 -337.000000 L 2137.000000 -337.000000 2337.000000 -328.000000 L 2337.000000 -328.000000 2328.000000 -175.000000 L 2328.000000 -175.000000 2263.375977 -1.639374 L 2263.375977 -1.639374 2070.000000 616.000000 L 2070.000000 616.000000 1819.000000 1069.000000 L 1819.000000 1069.000000 1609.000000 1299.000000 L 1609.000000 1299.000000 1517.000000 1561.000000 L 1517.000000 1561.000000 1517.000000 1716.000000 L 1517.000000 1716.000000 1546.000000 1745.000000 L 1546.000000 1745.000000 1614.000000 1733.000000 L 1614.000000 1733.000000 1676.000000 1753.000000 L 1676.000000 1753.000000 1718.000000 1806.000000 L 1718.000000 1806.000000 1742.000000 1943.000000 L 1742.000000 1943.000000 1737.000000 2100.000000 L 1737.000000 2100.000000 1673.000000 2223.000000 L 1673.000000 2223.000000 1589.000000 2204.000000 L 1589.000000 2204.000000 1536.000000 2204.000000 L 1536.000000 2204.000000 1536.540283 2243.971924 L 1536.540283 2243.971924 1561.000000 2326.000000 L 1561.000000 2326.000000 1613.000000 2489.000000 L 1613.000000 2489.000000 1687.000000 2508.000000 L 1687.000000 2508.000000 1771.000000 2545.000000 L 1771.000000 2545.000000 1856.000000 2685.000000 L 1856.000000 2685.000000 1970.000000 2774.000000 L 1970.000000 2774.000000 2234.975098 2784.094482 L 2234.975098 2784.094482 2286.000000 2751.000000 L 2286.000000 2751.000000 2299.000000 2606.000000 L 2299.000000 2606.000000 2371.000000 2499.000000 L 2371.000000 2499.000000 2517.000000 2226.000000 L 2517.000000 2226.000000 2514.000000 1818.000000 L 2514.000000 1818.000000 2445.000000 1439.000000 L 2445.000000 1439.000000 2517.000000 1123.000000 L 2517.000000 1123.000000 2462.000000 914.000000 L 2462.000000 914.000000 2556.000000 769.000000 L 2556.000000 769.000000 2894.000000 828.000000 L 2894.000000 828.000000 3246.000000 776.000000 L 3246.000000 776.000000 3394.000000 845.000000 L 3394.000000 845.000000 3339.000000 1045.000000 L 3339.000000 1045.000000 2987.000000 1338.000000 L 2987.000000 1338.000000 2849.000000 1649.000000 L 2849.000000 1649.000000 2752.000000 1943.000000 L 2752.000000 1943.000000 2716.233887 2225.620850 L 2716.233887 2225.620850 2715.000000 2511.000000 L 2715.000000 2511.000000 2752.000000 2653.000000 L 2752.000000 2653.000000 2940.000000 2707.000000 L 2940.000000 2707.000000 3006.000000 2788.000000 L 3006.000000 2788.000000 3181.000000 2766.000000 L 3181.000000 2766.000000 3374.000000 2788.000000 L 3374.000000 2788.000000 3480.000000 2715.000000 L 3480.000000 2715.000000 3528.000000 2581.000000 L 3528.000000 2581.000000 3439.000000 2162.000000 L 3439.000000 2162.000000 3562.000000 1646.000000 L 3562.000000 1646.000000 3785.000000 1358.000000 L 3785.000000 1358.000000 3939.000000 1049.000000 L 3939.000000 1049.000000 4291.000000 859.000000 L 4291.000000 859.000000 4467.000000 659.000000 L 4467.000000 659.000000 4802.000000 728.000000 L 4802.000000 728.000000 5182.000000 738.000000 L 5182.000000 738.000000 5515.000000 799.000000 L 5515.000000 799.000000 5489.000000 1149.000000 L 5489.000000 1149.000000 5242.000000 1505.000000 L 5242.000000 1505.000000 5365.000000 1755.000000 L 5365.000000 1755.000000 5226.000000 2061.000000 L 5226.000000 2061.000000 5131.000000 2422.000000 L 5131.000000 2422.000000 4837.000000 2691.000000 L 4837.000000 2691.000000 4832.000000 3283.000000 L 4832.000000 3283.000000 4749.000000 3627.000000 L 4749.000000 3627.000000 4723.000000 3861.000000 L 4723.000000 3861.000000 4416.000000 3822.000000 L 4416.000000 3822.000000 4047.000000 3845.000000 L 4047.000000 3845.000000 3828.000000 3833.000000 L 3828.000000 3833.000000 3776.000000 3807.000000 L 3776.000000 3807.000000 3628.000000 3807.000000 L 3628.000000 3807.000000 3653.000000 3930.000000 L 3653.000000 3930.000000 3603.000000 4102.000000 L 3603.000000 4102.000000 3613.000000 4299.000000 L 3613.000000 4299.000000 3587.000000 4490.000000 L 3587.000000 4490.000000 3451.000000 4490.000000 L 3451.000000 4490.000000 3430.000000 4619.000000 L 3430.000000 4619.000000 3371.000000 4633.000000 L 3371.000000 4633.000000 3391.000000 4708.000000 L 3391.000000 4708.000000 3377.000000 4755.000000 L 3377.000000 4755.000000 3241.000000 4762.000000 L 3241.000000 4762.000000 3025.000000 4764.000000 L 3025.000000 4764.000000 2896.000000 4744.000000 L 2896.000000 4744.000000 2834.701660 4733.366699 L 2834.701660 4733.366699 2798.000000 4727.000000 L 2798.000000 4727.000000 2765.000000 4728.000000 L 2765.000000 4728.000000 2763.000000 4741.000000 L 2763.000000 4741.000000 2782.000000 4761.000000 L 2782.000000 4761.000000 2829.000000 4763.000000 L 2829.000000 4763.000000 2875.000000 4792.000000 L 2875.000000 4792.000000 2977.000000 4799.000000 L 2977.000000 4799.000000 3065.000000 4824.000000 L 3065.000000 4824.000000 3164.000000 4844.000000 L 3164.000000 4844.000000 3231.000000 4918.000000 L 3231.000000 4918.000000 3455.000000 5029.000000 L 3455.000000 5029.000000 3511.000000 5123.000000 L 3511.000000 5123.000000 3606.000000 5429.000000 L 3606.000000 5429.000000 3522.000000 5974.000000 L 3522.000000 5974.000000 3834.000000 6708.000000 L 3834.000000 6708.000000 3980.000000 7681.000000 L 3980.000000 7681.000000 4661.000000 8009.000000 L 4661.000000 8009.000000 4923.000000 8835.000000 L 4923.000000 8835.000000 4819.000000 9740.000000 L 4819.000000 9740.000000 4966.000000 10351.000000 L 4966.000000 10351.000000 4948.000000 10910.000000 L 4948.000000 10910.000000 4998.000000 11037.000000 L 4998.000000 11037.000000 4923.000000 11156.000000 L 4923.000000 11156.000000 4811.000000 11249.000000 L 4811.000000 11249.000000 4681.000000 11271.000000 L 4681.000000 11271.000000 4536.000000 11265.000000 L 4536.000000 11265.000000 4478.000000 11144.000000 L 4478.000000 11144.000000 4388.000000 11017.000000 L 4388.000000 11017.000000 4240.000000 10936.000000 L 4240.000000 10936.000000 4065.000000 10921.000000 L 4065.000000 10921.000000 3994.000000 10924.000000 L 3994.000000 10924.000000 3980.000000 10906.000000 L 3980.000000 10906.000000 3986.589355 10876.678711 L 3986.589355 10876.678711 3924.000000 10877.000000 L 3924.000000 10877.000000 3915.000000 10851.000000 L 3915.000000 10851.000000 3921.000000 10798.000000 L 3921.000000 10798.000000 3880.000000 10794.000000 L 3880.000000 10794.000000 3881.000000 10766.000000 L 3881.000000 10766.000000 3854.000000 10760.000000 L 3854.000000 10760.000000 3828.000000 10773.000000 L 3828.000000 10773.000000 3785.000000 10776.000000 L 3785.000000 10776.000000 3744.000000 10761.000000 L 3744.000000 10761.000000 3743.000000 10785.000000 L 3743.000000 10785.000000 3720.000000 10785.000000 L 3720.000000 10785.000000 3720.000000 10806.000000 L 3720.000000 10806.000000 3692.000000 10807.000000 L 3692.000000 10807.000000 3696.000000 10827.000000 L 3696.000000 10827.000000 3671.000000 10830.000000 L 3671.000000 10830.000000 3530.000000 10872.000000 L 3530.000000 10872.000000 3529.000000 10898.000000 L 3529.000000 10898.000000 3491.000000 10916.000000 L 3491.000000 10916.000000 3442.000000 10918.000000 L 3442.000000 10918.000000 3439.000000 10940.000000 L 3439.000000 10940.000000 3401.000000 10940.000000 L 3401.000000 10940.000000 3401.000000 10968.000000 L 3401.000000 10968.000000 3355.000000 10970.000000 L 3355.000000 10970.000000 3315.000000 11005.000000 L 3315.000000 11005.000000 3278.000000 10970.000000 L 3278.000000 10970.000000 3271.000000 10915.000000 L 3271.000000 10915.000000 3188.000000 10873.000000 L 3188.000000 10873.000000 3117.000000 10842.000000 L 3117.000000 10842.000000 3034.000000 10833.000000 L 3034.000000 10833.000000 2998.000000 10864.000000 L 2998.000000 10864.000000 2922.000000 10877.000000 L 2922.000000 10877.000000 2821.000000 10833.000000 L 2821.000000 10833.000000 2778.000000 10834.000000 L 2778.000000 10834.000000 2750.000000 10804.000000 L 2750.000000 10804.000000 2749.000000 10773.000000 L 2749.000000 10773.000000 2698.000000 10755.000000 L 2698.000000 10755.000000 2620.000000 10764.000000 L 2620.000000 10764.000000 2546.000000 10755.000000 L 2546.000000 10755.000000 2454.000000 10786.000000 L 2454.000000 10786.000000 2374.000000 10756.000000 L 2374.000000 10756.000000 2327.000000 10706.000000 L 2327.000000 10706.000000 2228.000000 10690.000000 L 2228.000000 10690.000000 2141.000000 10690.000000 L 2141.000000 10690.000000 2135.000000 10739.000000 L 2135.000000 10739.000000 2060.000000 10738.000000 L 2060.000000 10738.000000 2068.963135 10780.000977 L 2068.963135 10780.000977 1903.000000 10796.000000 L 1903.000000 10796.000000 1805.886108 10780.000977 L 1805.886108 10780.000977 1627.000000 10795.000000 L 1627.000000 10795.000000 1547.000000 10770.000000 L 1547.000000 10770.000000 1499.000000 10780.000000 L 1499.000000 10780.000000 1475.000000 10802.000000 L 1475.000000 10802.000000 1415.000000 10802.000000 L 1415.000000 10802.000000 1356.000000 10755.000000 L 1356.000000 10755.000000 1182.000000 10757.000000 L 1182.000000 10757.000000 1014.000000 10773.000000 L 1014.000000 10773.000000 1014.000000 10821.000000 L 1014.000000 10821.000000 832.000000 10848.000000 L 832.000000 10848.000000 692.000000 10916.000000 L 692.000000 10916.000000 547.000000 10883.000000 L 547.000000 10883.000000 404.000000 10887.000000 L 404.000000 10887.000000 356.000000 10831.000000 L 356.000000 10831.000000 352.000000 10705.000000 L 352.000000 10705.000000 293.000000 10646.000000 L 293.000000 10646.000000 209.000000 10625.000000 L 209.000000 10625.000000 125.000000 10634.000000 L 125.000000 10634.000000 118.000000 10688.000000 L 118.000000 10688.000000 55.000000 10665.000000 L 55.000000 10665.000000 -10.000000 10668.000000 L -10.000000 10668.000000 -49.000000 10622.000000 L -49.000000 10622.000000 -68.000000 10531.000000 L -68.000000 10531.000000 -45.000000 10260.000000 L -45.000000 10260.000000 -62.000000 10058.000000 L -62.000000 10058.000000 -36.000000 9994.000000 L -36.000000 9994.000000 -39.000000 9909.000000 L -39.000000 9909.000000 3.000000 9855.000000 L 3.000000 9855.000000 32.000000 9834.000000 L 32.000000 9834.000000 44.000000 9837.000000 L 44.000000 9837.000000 58.000000 9851.000000 L 58.000000 9851.000000 76.000000 9844.000000 L 76.000000 9844.000000 76.000000 9823.000000 L 76.000000 9823.000000 68.000000 9807.000000 L 68.000000 9807.000000 68.000000 9648.000000 L 68.000000 9648.000000 95.000000 9443.000000 L 95.000000 9443.000000 133.000000 9302.000000 L 133.000000 9302.000000 164.000000 9218.000000 L 164.000000 9218.000000 176.000000 9151.000000 L 176.000000 9151.000000 176.000000 9122.000000 L 176.000000 9122.000000 153.000000 9099.000000 L 153.000000 9099.000000 156.000000 8994.000000 L 156.000000 8994.000000 137.000000 8895.000000 L 137.000000 8895.000000 123.000000 8785.000000 L 123.000000 8785.000000 139.000000 8707.000000 L 139.000000 8707.000000 126.000000 8619.000000 L 126.000000 8619.000000 181.000000 8498.000000 L 181.000000 8498.000000 194.000000 8318.000000 L 194.000000 8318.000000 194.000000 8295.000000 L 194.000000 8295.000000 161.000000 8203.000000 L 161.000000 8203.000000 139.000000 8035.000000 L 139.000000 8035.000000 182.000000 7802.000000 L 182.000000 7802.000000 144.000000 7693.000000 L 144.000000 7693.000000 187.000000 7594.000000 L 187.000000 7594.000000 183.000000 7493.000000 L 183.000000 7493.000000 199.000000 7470.000000 L 199.000000 7470.000000 200.000000 7448.000000 L 200.000000 7448.000000 169.653290 7433.311523 L 169.653290 7433.311523 -596.000000 7144.000000 L -596.000000 7144.000000 -981.000000 7022.000000 L -981.000000 7022.000000 -1483.000000 6734.000000 L -1483.000000 6734.000000 -2235.000000 6514.000000 L -2235.000000 6514.000000 -2737.000000 6245.000000 L -2737.000000 6245.000000 -3556.000000 5994.000000 L -3556.000000 5994.000000 -4058.000000 5707.000000 L -4058.000000 5707.000000 -4688.000000 5584.000000 L -4688.000000 5584.000000 -5209.674805 5308.039551 L -5209.674805 5308.039551 -5830.000000 5063.000000 L -5830.000000 5063.000000 -5792.000000 4325.000000 L -5792.000000 4325.000000 -5635.000000 3801.000000 L -5635.000000 3801.000000 -5796.000000 2379.000000 L -5796.000000 2379.000000 -5774.000000 1837.000000 L -5774.000000 1837.000000 -5850.000000 -221.000000 L -5850.000000 -221.000000 -7055.000000 -255.000000 L -7055.000000 -255.000000 -7284.000000 12666.000000 L -7284.000000 12666.000000 7035.000000 12723.000000 L 7035.000000 12723.000000 7323.000000 -751.000000 L 7323.000000 -751.000000 1231.000000 -685.000000 L 1231.000000 -685.000000 1018.000000 -396.000000 L 1018.000000 -396.000000 977.000000 -217.000000 L 977.000000 -217.000000 Z" fill="#cccccc" stroke="#000000" stroke-width="2"/>
<path d="M 1193.000000 1217.000000 1306.000000 1242.000000 L 1306.000000 1242.000000 1323.000000 1273.000000 L 1323.000000 1273.000000 1334.000000 1364.000000 L 1334.000000 1364.000000 1334.000000 1512.000000 L 1334.000000 1512.000000 1343.000000 1627.000000 L 1343.000000 1627.000000 1336.000000 1649.000000 L 1336.000000 1649.000000 1313.000000 1654.000000 L 1313.000000 1654.000000 1287.000000 1598.000000 L 1287.000000 1598.000000 1255.000000 1513.000000 L 1255.000000 1513.000000 1213.000000 1416.000000 L 1213.000000 1416.000000 1188.000000 1368.000000 L 1188.000000 1368.000000 1136.000000 1303.000000 L 1136.000000 1303.000000 1123.000000 1259.000000 L 1123.000000 1259.000000 1136.000000 1233.000000 L 1136.000000 1233.000000 Z" fill="#cccccc" stroke="#000000" stroke-width="2"/>
<path d="M 1750.000000 3063.000000 1892.000000 3168.000000 L 1892.000000 3168.000000 1852.000000 3388.000000 L 1852.000000 3388.000000 1931.000000 3630.000000 L 1931.000000 3630.000000 1877.000000 3906.000000 L 1877.000000 3906.000000 1851.000000 4314.000000 L 1851.000000 4314.000000 1748.000000 4633.000000 L 1748.000000 4633.000000 1857.000000 4820.000000 L 1857.000000 4820.000000 2012.000000 5016.000000 L 2012.000000 5016.000000 2100.000000 5109.000000 L 2100.000000 5109.000000 2140.000000 5092.000000 L 2140.000000 5092.000000 2181.000000 5103.000000 L 2181.000000 5103.000000 2206.000000 5104.000000 L 2206.000000 5104.000000 2252.000000 4880.000000 L 2252.000000 4880.000000 2297.000000 4803.000000 L 2297.000000 4803.000000 2410.000000 4767.000000 L 2410.000000 4767.000000 2458.000000 4787.000000 L 2458.000000 4787.000000 2482.000000 4788.000000 L 2482.000000 4788.000000 2489.000000 4653.000000 L 2489.000000 4653.000000 2519.000000 4577.000000 L 2519.000000 4577.000000 2526.000000 4489.000000 L 2526.000000 4489.000000 2528.000000 4419.000000 L 2528.000000 4419.000000 2538.000000 4348.000000 L 2538.000000 4348.000000 2440.000000 4203.000000 L 2440.000000 4203.000000 2388.000000 3998.000000 L 2388.000000 3998.000000 2291.000000 3901.000000 L 2291.000000 3901.000000 2330.000000 3693.000000 L 2330.000000 3693.000000 2456.000000 3495.000000 L 2456.000000 3495.000000 2474.000000 3278.000000 L 2474.000000 3278.000000 2473.000000 3143.000000 L 2473.000000 3143.000000 2494.000000 3098.000000 L 2494.000000 3098.000000 2494.000000 3059.000000 L 2494.000000 3059.000000 2332.000000 3056.000000 L 2332.000000 3056.000000 2069.000000 3034.000000 L 2069.000000 3034.000000 1911.000000 3025.000000 L 1911.000000 3025.000000 1824.000000 2988.000000 L 1824.000000 2988.000000 1732.000000 2989.000000 L 1732.000000 2989.000000 1732.000000 3029.000000 L 1732.000000 3029.000000 Z" fill="#cccccc" stroke="#000000" stroke-width="2"/>
<path d="M 2766.000000 3065.000000 2873.000000 3067.000000 L 2873.000000 3067.000000 3081.000000 3056.000000 L 3081.000000 3056.000000 3330.000000 3083.000000 L 3330.000000 3083.000000 3434.000000 3083.000000 L 3434.000000 3083.000000 3450.000000 3172.000000 L 3450.000000 3172.000000 3406.000000 3325.000000 L 3406.000000 3325.000000 3427.000000 3482.000000 L 3427.000000 3482.000000 3399.000000 3579.000000 L 3399.000000 3579.000000 3301.000000 3707.000000 L 3301.000000 3707.000000 3280.000000 3891.000000 L 3280.000000 3891.000000 3273.000000 4050.000000 L 3273.000000 4050.000000 3291.000000 4094.000000 L 3291.000000 4094.000000 3330.000000 4099.000000 L 3330.000000 4099.000000 3368.000000 4095.000000 L 3368.000000 4095.000000 3373.000000 4116.000000 L 3373.000000 4116.000000 3371.000000 4138.000000 L 3371.000000 4138.000000 3362.000000 4176.000000 L 3362.000000 4176.000000 3333.000000 4218.000000 L 3333.000000 4218.000000 3279.000000 4229.000000 L 3279.000000 4229.000000 3230.000000 4302.000000 L 3230.000000 4302.000000 3180.000000 4369.000000 L 3180.000000 4369.000000 3203.000000 4428.000000 L 3203.000000 4428.000000 3184.000000 4472.000000 L 3184.000000 4472.000000 3116.449463 4472.951172 L 3116.449463 4472.951172 3019.000000 4475.000000 L 3019.000000 4475.000000 2971.000000 4475.000000 L 2971.000000 4475.000000 2761.000000 4497.000000 L 2761.000000 4497.000000 2723.000000 4496.000000 L 2723.000000 4496.000000 2727.000000 4423.000000 L 2727.000000 4423.000000 2720.000000 4353.000000 L 2720.000000 4353.000000 2787.000000 4220.000000 L 2787.000000 4220.000000 2814.000000 4040.000000 L 2814.000000 4040.000000 2873.000000 3943.000000 L 2873.000000 3943.000000 2803.000000 3739.000000 L 2803.000000 3739.000000 2845.000000 3536.000000 L 2845.000000 3536.000000 2844.000000 3331.000000 L 2844.000000 3331.000000 2771.000000 3118.000000 L 2771.000000 3118.000000 Z" fill="#cccccc" stroke="#000000" stroke-width="2"/>
<path d="M 1600.000000 6012.000000 1714.000000 6018.000000 L 1714.000000 6018.000000 1836.000000 6000.000000 L 1836.000000 6000.000000 1884.000000 5969.000000 L 1884.000000 5969.000000 2000.000000 5968.000000 L 2000.000000 5968.000000 2038.000000 5956.000000 L 2038.000000 5956.000000 2081.000000 5974.000000 L 2081.000000 5974.000000 2091.000000 6025.000000 L 2091.000000 6025.000000 2071.000000 6131.000000 L 2071.000000 6131.000000 1988.000000 6191.000000 L 1988.000000 6191.000000 1940.000000 6340.000000 L 1940.000000 6340.000000 1959.000000 6442.000000 L 1959.000000 6442.000000 1925.000000 6564.000000 L 1925.000000 6564.000000 1871.000000 6656.000000 L 1871.000000 6656.000000 1730.000000 6670.000000 L 1730.000000 6670.000000 1650.000000 6931.000000 L 1650.000000 6931.000000 1496.000000 6953.000000 L 1496.000000 6953.000000 1236.000000 7167.000000 L 1236.000000 7167.000000 911.000000 7259.000000 L 911.000000 7259.000000 814.000000 7322.000000 L 814.000000 7322.000000 722.000000 7332.000000 L 722.000000 7332.000000 645.000000 7282.000000 L 645.000000 7282.000000 542.000000 7282.000000 L 542.000000 7282.000000 433.000000 7173.000000 L 433.000000 7173.000000 264.000000 7052.000000 L 264.000000 7052.000000 146.000000 7005.000000 L 146.000000 7005.000000 -46.000000 7000.000000 L -46.000000 7000.000000 -208.000000 6917.000000 L -208.000000 6917.000000 -397.000000 6852.000000 L -397.000000 6852.000000 -432.000000 6810.000000 L -432.000000 6810.000000 -482.000000 6785.000000 L -482.000000 6785.000000 -548.000000 6770.000000 L -548.000000 6770.000000 -560.000000 6745.000000 L -560.000000 6745.000000 -554.000000 6715.000000 L -554.000000 6715.000000 -502.000000 6719.000000 L -502.000000 6719.000000 -355.000000 6723.000000 L -355.000000 6723.000000 -352.000000 6752.000000 L -352.000000 6752.000000 -305.000000 6754.000000 L -305.000000 6754.000000 -226.000000 6793.000000 L -226.000000 6793.000000 -42.000000 6808.000000 L -42.000000 6808.000000 172.000000 6841.000000 L 172.000000 6841.000000 457.000000 6802.000000 L 457.000000 6802.000000 609.000000 6730.000000 L 609.000000 6730.000000 769.000000 6658.000000 L 769.000000 6658.000000 876.000000 6656.000000 L 876.000000 6656.000000 944.000000 6636.000000 L 944.000000 6636.000000 924.000000 6541.000000 L 924.000000 6541.000000 918.000000 6476.000000 L 918.000000 6476.000000 1110.000000 6439.000000 L 1110.000000 6439.000000 1154.000000 6325.000000 L 1154.000000 6325.000000 1126.000000 6166.000000 L 1126.000000 6166.000000 1320.000000 6101.000000 L 1320.000000 6101.000000 1452.000000 6080.000000 L 1452.000000 6080.000000 Z" fill="#cccccc" stroke="#000000" stroke-width="2"/>
</svg>