<?xml version="1.0" encoding="UTF-8" standalone="no"?>
<svg
	width="5080.000000" 
	height="4256.000000"
	viewBox="-432.000000 -504.000000 5080.000000 4256.000000"
	version="1.1"
	xmlns="http://www.w3.org/2000/svg"
	xmlns:svg="http://www.w3.org/2000/svg">
<path d="M 2744.000000 616.000000 2952.000000 728.000000 L 2952.000000 728.000000 3136.000000 768.000000 L 3136.000000 768.000000 3280.000000 872.000000 L 3280.000000 872.000000 3320.000000 912.000000 L 3320.000000 912.000000 3392.000000 952.000000 L 3392.000000 952.000000 3464.000000 952.000000 L 3464.000000 952.000000 3584.000000 920.000000 L 3584.000000 920.000000 3728.000000 896.000000 L 3728.000000 896.000000 3936.000000 912.000000 L 3936.000000 912.000000 4096.000000 976.000000 L 4096.000000 976.000000 4168.000000 1088.000000 L 4168.000000 1088.000000 4248.000000 1168.000000 L 4248.000000 1168.000000 4248.000000 1328.000000 L 4248.000000 1328.000000 4208.000000 1584.000000 L 4208.000000 1584.000000 4216.000000 1808.000000 L 4216.000000 1808.000000 4200.000000 1968.000000 L 4200.000000 1968.000000 4184.000000 2032.000000 L 4184.000000 2032.000000 4152.000000 2040.000000 L 4152.000000 2040.000000 4024.000000 2048.000000 L 4024.000000 2048.000000 3912.000000 2040.000000 L 3912.000000 2040.000000 3880.000000 2048.000000 L 3880.000000 2048.000000 3808.000000 2064.000000 L 3808.000000 2064.000000 3720.000000 2128.000000 L 3720.000000 2128.000000 3608.000000 2160.000000 L 3608.000000 2160.000000 3504.000000 2264.000000 L 3504.000000 2264.000000 3416.000000 2280.000000 L 3416.000000 2280.000000 3160.000000 2280.000000 L 3160.000000 2280.000000 2872.000000 2304.000000 L 2872.000000 2304.000000 2176.000000 2288.000000 L 2176.000000 2288.000000 1936.000000 2264.000000 L 1936.000000 2264.000000 1768.000000 2200.000000 L 1768.000000 2200.000000 1600.000000 2184.000000 L 1600.000000 2184.000000 1560.000000 2184.000000 L 1560.000000 2184.000000 1576.000000 2216.000000 L 1576.000000 2216.000000 1600.000000 2304.000000 L 1600.000000 2304.000000 1600.000000 2400.000000 L 1600.000000 2400.000000 1576.000000 2584.000000 L 1576.000000 2584.000000 1544.000000 2776.000000 L 1544.000000 2776.000000 1504.000000 2936.000000 L 1504.000000 2936.000000 1520.000000 3136.000000 L 1520.000000 3136.000000 1528.000000 3352.000000 L 1528.000000 3352.000000 1512.000000 3424.000000 L 1512.000000 3424.000000 1392.000000 3456.000000 L 1392.000000 3456.000000 1128.000000 3448.000000 L 1128.000000 3448.000000 984.000000 3416.000000 L 984.000000 3416.000000 872.000000 3384.000000 L 872.000000 3384.000000 776.000000 3384.000000 L 776.000000 3384.000000 744.000000 3312.000000 L 744.000000 3312.000000 296.000000 3304.000000 L 296.000000 3304.000000 272.000000 3224.000000 L 272.000000 3224.000000 240.000000 3024.000000 L 240.000000 3024.000000 248.000000 2816.000000 L 248.000000 2816.000000 24.000000 2824.000000 L 24.000000 2824.000000 16.000000 3752.000000 L 16.000000 3752.000000 1752.000000 3752.000000 L 1752.000000 3752.000000 2040.000000 3480.000000 L 2040.000000 3480.000000 2072.000000 2680.000000 L 2072.000000 2680.000000 4200.000000 2688.000000 L 4200.000000 2688.000000 4648.000000 2256.000000 L 4648.000000 2256.000000 4640.000000 1024.000000 L 4640.000000 1024.000000 4440.000000 600.000000 L 4440.000000 600.000000 4216.000000 432.000000 L 4216.000000 432.000000 3160.000000 112.000000 L 3160.000000 112.000000 2464.000000 -128.000000 L 2464.000000 -128.000000 1352.000000 -504.000000 L 1352.000000 -504.000000 1256.000000 -424.000000 L 1256.000000 -424.000000 1240.000000 -176.000000 L 1240.000000 -176.000000 1272.000000 -80.000000 L 1272.000000 -80.000000 1384.000000 0.000000 L 1384.000000 0.000000 1440.000000 208.000000 L 1440.000000 208.000000 1456.000000 360.000000 L 1456.000000 360.000000 1496.000000 408.000000 L 1496.000000 408.000000 1536.000000 408.000000 L 1536.000000 408.000000 1576.000000 360.000000 L 1576.000000 360.000000 1592.000000 272.000000 L 1592.000000 272.000000 1656.000000 248.000000 L 1656.000000 248.000000 1848.000000 216.000000 L 1848.000000 216.000000 2088.000000 280.000000 L 2088.000000 280.000000 2256.000000 376.000000 L 2256.000000 376.000000 2416.000000 432.000000 L 2416.000000 432.000000 Z" fill="#cccccc" stroke="#000000" stroke-width="2"/>
<path d="M 2216.000000 992.000000 2152.000000 928.000000 L 2152.000000 928.000000 2160.000000 856.000000 L 2160.000000 856.000000 2208.000000 824.000000 L 2208.000000 824.000000 2344.000000 832.000000 L 2344.000000 832.000000 2472.000000 832.000000 L 2472.000000 832.000000 2576.000000 904.000000 L 2576.000000 904.000000 2768.000000 992.000000 L 2768.000000 992.000000 2800.000000 1032.000000 L 2800.000000 1032.000000 2776.000000 1080.000000 L 2776.000000 1080.000000 2696.000000 1136.000000 L 2696.000000 1136.000000 2552.000000 1184.000000 L 2552.000000 1184.000000 2408.000000 1208.000000 L 2408.000000 1208.000000 2288.000000 1120.000000 L 2288.000000 1120.000000 Z" fill="#cccccc" stroke="#000000" stroke-width="2"/>
<path d="M 776.000000 184.000000 1112.000000 224.000000 L 1112.000000 224.000000 1128.000000 296.000000 L 1128.000000 296.000000 1120.000000 368.000000 L 1120.000000 368.000000 1104.000000 432.000000 L 1104.000000 432.000000 1008.000000 440.000000 L 1008.000000 440.000000 928.000000 440.000000 L 928.000000 440.000000 912.000000 472.000000 L 912.000000 472.000000 912.000000 704.000000 L 912.000000 704.000000 1000.000000 712.000000 L 1000.000000 712.000000 1104.000000 704.000000 L 1104.000000 704.000000 1248.000000 704.000000 L 1248.000000 704.000000 1408.000000 720.000000 L 1408.000000 720.000000 1488.000000 696.000000 L 1488.000000 696.000000 1584.000000 664.000000 L 1584.000000 664.000000 1720.000000 664.000000 L 1720.000000 664.000000 1800.000000 672.000000 L 1800.000000 672.000000 1808.000000 872.000000 L 1808.000000 872.000000 1792.000000 1104.000000 L 1792.000000 1104.000000 1824.000000 1328.000000 L 1824.000000 1328.000000 1816.000000 1488.000000 L 1816.000000 1488.000000 1864.000000 1552.000000 L 1864.000000 1552.000000 2008.000000 1568.000000 L 2008.000000 1568.000000 2176.000000 1568.000000 L 2176.000000 1568.000000 2312.000000 1568.000000 L 2312.000000 1568.000000 2600.000000 1472.000000 L 2600.000000 1472.000000 2848.000000 1360.000000 L 2848.000000 1360.000000 2992.000000 1280.000000 L 2992.000000 1280.000000 3112.000000 1280.000000 L 3112.000000 1280.000000 3296.000000 1240.000000 L 3296.000000 1240.000000 3488.000000 1240.000000 L 3488.000000 1240.000000 3728.000000 1256.000000 L 3728.000000 1256.000000 3864.000000 1256.000000 L 3864.000000 1256.000000 3872.000000 1376.000000 L 3872.000000 1376.000000 3872.000000 1496.000000 L 3872.000000 1496.000000 3832.000000 1608.000000 L 3832.000000 1608.000000 3808.000000 1800.000000 L 3808.000000 1800.000000 3760.000000 1824.000000 L 3760.000000 1824.000000 3656.000000 1840.000000 L 3656.000000 1840.000000 3512.000000 1848.000000 L 3512.000000 1848.000000 3280.000000 1928.000000 L 3280.000000 1928.000000 2856.000000 1944.000000 L 2856.000000 1944.000000 2016.000000 1936.000000 L 2016.000000 1936.000000 1696.000000 1912.000000 L 1696.000000 1912.000000 1536.000000 1848.000000 L 1536.000000 1848.000000 1368.000000 1856.000000 L 1368.000000 1856.000000 1336.000000 1968.000000 L 1336.000000 1968.000000 1344.000000 2120.000000 L 1344.000000 2120.000000 1344.000000 2280.000000 L 1344.000000 2280.000000 1368.000000 2328.000000 L 1368.000000 2328.000000 1392.000000 2608.000000 L 1392.000000 2608.000000 1392.000000 2640.000000 L 1392.000000 2640.000000 1368.000000 2752.000000 L 1368.000000 2752.000000 1312.000000 2840.000000 L 1312.000000 2840.000000 1264.000000 2888.000000 L 1264.000000 2888.000000 1224.000000 2896.000000 L 1224.000000 2896.000000 1184.000000 2864.000000 L 1184.000000 2864.000000 1112.000000 2816.000000 L 1112.000000 2816.000000 968.000000 2776.000000 L 968.000000 2776.000000 240.000000 2824.000000 L 240.000000 2824.000000 24.000000 2824.000000 L 24.000000 2824.000000 40.000000 2312.000000 L 40.000000 2312.000000 16.000000 1056.000000 L 16.000000 1056.000000 -432.000000 528.000000 L -432.000000 528.000000 -432.000000 -248.000000 L -432.000000 -248.000000 24.000000 -232.000000 L 24.000000 -232.000000 24.000000 208.000000 L 24.000000 208.000000 616.000000 216.000000 L 616.000000 216.000000 Z" fill="#cccccc" stroke="#000000" stroke-width="2"/>
</svg>