<?xml version="1.0" encoding="UTF-8" standalone="no"?>
<svg
   width="3007.679321"
   height="4728.000000"
   viewBox="-175.679321 408.000000 3007.679321 4728.000000"
   version="1.1"
   id="svg2"
   sodipodi:docname="level_blockout.svg"
   inkscape:version="1.4.2 (f4327f4, 2025-05-13)"
   xmlns:inkscape="http://www.inkscape.org/namespaces/inkscape"
   xmlns:sodipodi="http://sodipodi.sourceforge.net/DTD/sodipodi-0.dtd"
   xmlns="http://www.w3.org/2000/svg"
   xmlns:svg="http://www.w3.org/2000/svg">
  <defs
     id="defs2" />
  <sodipodi:namedview
     id="namedview2"
     pagecolor="#ffffff"
     bordercolor="#000000"
     borderopacity="0.25"
     inkscape:showpageshadow="2"
     inkscape:pageopacity="0.0"
     inkscape:pagecheckerboard="0"
     inkscape:deskcolor="#d1d1d1"
     inkscape:zoom="0.17089679"
     inkscape:cx="1506.7574"
     inkscape:cy="2364"
     inkscape:window-width="1920"
     inkscape:window-height="1010"
     inkscape:window-x="-6"
     inkscape:window-y="-6"
     inkscape:window-maximized="1"
     inkscape:current-layer="svg2" />
  <path
     d="M 424.000000 760.000000 792.000000 760.000000 L 792.000000 760.000000 824.000000 792.000000 L 824.000000 792.000000 840.000000 840.000000 L 840.000000 840.000000 824.000000 872.000000 L 824.000000 872.000000 808.000000 920.000000 L 808.000000 920.000000 816.000000 968.000000 L 816.000000 968.000000 840.000000 1024.000000 L 840.000000 1024.000000 808.000000 1096.000000 L 808.000000 1096.000000 856.000000 1184.000000 L 856.000000 1184.000000 848.000000 1248.000000 L 848.000000 1248.000000 784.000000 1424.000000 L 784.000000 1424.000000 792.000000 1464.000000 L 792.000000 1464.000000 848.000000 1496.000000 L 848.000000 1496.000000 896.000000 1632.000000 L 896.000000 1632.000000 864.000000 1664.000000 L 864.000000 1664.000000 808.000000 1768.000000 L 808.000000 1768.000000 728.000000 1792.000000 L 728.000000 1792.000000 768.000000 1968.000000 L 768.000000 1968.000000 800.000000 2080.000000 L 800.000000 2080.000000 760.000000 2152.000000 L 760.000000 2152.000000 608.000000 2184.000000 L 608.000000 2184.000000 424.000000 2176.000000 L 424.000000 2176.000000 120.000000 2320.000000 L 120.000000 2320.000000 -8.000000 2640.000000 L -8.000000 2640.000000 32.000000 2904.000000 L 32.000000 2904.000000 64.000000 2968.000000 L 64.000000 2968.000000 136.000000 2992.000000 L 136.000000 2992.000000 208.000000 2960.000000 L 208.000000 2960.000000 256.000000 2904.000000 L 256.000000 2904.000000 400.000000 2944.000000 L 400.000000 2944.000000 432.000000 3056.000000 L 432.000000 3056.000000 656.000000 3080.000000 L 656.000000 3080.000000 944.000000 3032.000000 L 944.000000 3032.000000 1240.000000 3096.000000 L 1240.000000 3096.000000 1288.000000 3056.000000 L 1288.000000 3056.000000 1384.000000 3144.000000 L 1384.000000 3144.000000 1408.000000 3272.000000 L 1408.000000 3272.000000 1448.000000 3536.000000 L 1448.000000 3536.000000 1328.000000 4008.000000 L 1328.000000 4008.000000 1333.143188 4550.567383 L 1333.143188 4550.567383 1368.000000 4792.000000 L 1368.000000 4792.000000 1408.000000 4856.000000 L 1408.000000 4856.000000 1560.000000 4832.000000 L 1560.000000 4832.000000 1896.000000 4848.000000 L 1896.000000 4848.000000 2288.000000 4824.000000 L 2288.000000 4824.000000 2672.000000 4656.000000 L 2672.000000 4656.000000 2592.000000 4488.000000 L 2592.000000 4488.000000 2384.000000 4248.000000 L 2384.000000 4248.000000 2792.000000 4232.000000 L 2792.000000 4232.000000 2800.000000 5104.000000 L 2800.000000 5104.000000 888.000000 5136.000000 L 888.000000 5136.000000 896.000000 4072.000000 L 896.000000 4072.000000 472.000000 3576.000000 L 472.000000 3576.000000 -175.679321 3358.629883 L -175.679321 3358.629883 -168.000000 2176.000000 L -168.000000 2176.000000 -168.000000 744.000000 L -168.000000 744.000000 Z"
     fill="#cccccc"
     stroke="#000000"
     stroke-width="2"
     id="path1" />
  <path
     d="M 1216.000000 704.000000 1112.000000 768.000000 L 1112.000000 768.000000 1096.000000 832.000000 L 1096.000000 832.000000 1120.000000 896.000000 L 1120.000000 896.000000 1104.000000 968.000000 L 1104.000000 968.000000 1136.000000 1080.000000 L 1136.000000 1080.000000 1184.000000 1192.000000 L 1184.000000 1192.000000 1168.000000 1352.000000 L 1168.000000 1352.000000 1240.000000 1408.000000 L 1240.000000 1408.000000 1280.000000 1568.000000 L 1280.000000 1568.000000 1288.000000 1720.000000 L 1288.000000 1720.000000 1120.000000 1768.000000 L 1120.000000 1768.000000 1040.000000 1728.000000 L 1040.000000 1728.000000 992.000000 1824.000000 L 992.000000 1824.000000 1104.000000 2032.000000 L 1104.000000 2032.000000 1224.000000 2096.000000 L 1224.000000 2096.000000 1360.000000 2168.000000 L 1360.000000 2168.000000 1320.000000 2320.000000 L 1320.000000 2320.000000 1152.000000 2360.000000 L 1152.000000 2360.000000 880.000000 2256.000000 L 880.000000 2256.000000 624.000000 2392.000000 L 624.000000 2392.000000 272.000000 2504.000000 L 272.000000 2504.000000 264.000000 2616.000000 L 264.000000 2616.000000 304.000000 2712.000000 L 304.000000 2712.000000 328.000000 2760.000000 L 328.000000 2760.000000 400.000000 2768.000000 L 400.000000 2768.000000 488.000000 2712.000000 L 488.000000 2712.000000 616.000000 2696.000000 L 616.000000 2696.000000 728.000000 2616.000000 L 728.000000 2616.000000 1064.000000 2648.000000 L 1064.000000 2648.000000 1328.000000 2704.000000 L 1328.000000 2704.000000 1544.000000 2856.000000 L 1544.000000 2856.000000 1640.000000 2968.000000 L 1640.000000 2968.000000 1544.000000 3120.000000 L 1544.000000 3120.000000 1696.000000 3336.000000 L 1696.000000 3336.000000 1712.000000 3856.000000 L 1712.000000 3856.000000 1672.000000 4152.000000 L 1672.000000 4152.000000 1656.000000 4304.000000 L 1656.000000 4304.000000 1664.000000 4368.000000 L 1664.000000 4368.000000 1696.000000 4480.000000 L 1696.000000 4480.000000 1808.000000 4504.000000 L 1808.000000 4504.000000 1928.000000 4400.000000 L 1928.000000 4400.000000 2152.000000 4256.000000 L 2152.000000 4256.000000 2344.000000 4248.000000 L 2344.000000 4248.000000 2808.000000 4256.000000 L 2808.000000 4256.000000 2832.000000 3920.000000 L 2832.000000 3920.000000 2192.000000 2888.000000 L 2192.000000 2888.000000 2016.000000 952.000000 L 2016.000000 952.000000 1944.000000 608.000000 L 1944.000000 608.000000 1824.000000 432.000000 L 1824.000000 432.000000 1680.000000 408.000000 L 1680.000000 408.000000 1616.000000 480.000000 L 1616.000000 480.000000 1568.000000 560.000000 L 1568.000000 560.000000 1536.000000 664.000000 L 1536.000000 664.000000 1416.000000 712.000000 L 1416.000000 712.000000 Z"
     fill="#cccccc"
     stroke="#000000"
     stroke-width="2"
     id="path2" />
</svg>
