<?xml version="1.0" encoding="UTF-8" standalone="no"?>
<svg
	width="3579.138474" 
	height="5626.320312"
	viewBox="-209.058395 485.520020 3579.138474 5626.320312"
	version="1.1"
	xmlns="http://www.w3.org/2000/svg"
	xmlns:svg="http://www.w3.org/2000/svg">
<path d="M 504.560028 904.400024 942.480042 904.400024 L 942.480042 904.400024 980.560059 942.480042 L 980.560059 942.480042 999.600037 999.600037 L 999.600037 999.600037 980.560059 1037.680054 L 980.560059 1037.680054 961.520020 1094.800049 L 961.520020 1094.800049 971.040039 1151.920044 L 971.040039 1151.920044 999.600037 1218.560059 L 999.600037 1218.560059 961.520020 1304.240112 L 961.520020 1304.240112 1018.640076 1408.960083 L 1018.640076 1408.960083 1009.120056 1485.120117 L 1009.120056 1485.120117 932.960022 1694.560059 L 932.960022 1694.560059 942.480042 1742.160034 L 942.480042 1742.160034 1009.120056 1780.240112 L 1009.120056 1780.240112 1066.239990 1942.080078 L 1066.239990 1942.080078 1028.160034 1980.160156 L 1028.160034 1980.160156 961.520020 2103.920166 L 961.520020 2103.920166 866.320068 2132.479980 L 866.320068 2132.479980 913.920044 2341.920166 L 913.920044 2341.920166 912.999939 2464.999756 L 912.999939 2464.999756 855.999939 2517.999756 L 855.999939 2517.999756 723.520020 2598.960205 L 723.520020 2598.960205 504.560028 2589.440186 L 504.560028 2589.440186 142.800003 2760.800049 L 142.800003 2760.800049 -9.520000 3141.600098 L -9.520000 3141.600098 38.080002 3455.760254 L 38.080002 3455.760254 76.160004 3531.920166 L 76.160004 3531.920166 161.840012 3560.480225 L 161.840012 3560.480225 247.520020 3522.400146 L 247.520020 3522.400146 304.640015 3455.760254 L 304.640015 3455.760254 476.000031 3503.360107 L 476.000031 3503.360107 514.080017 3636.640137 L 514.080017 3636.640137 780.640015 3665.200195 L 780.640015 3665.200195 1123.360107 3608.080078 L 1123.360107 3608.080078 1475.600098 3684.240234 L 1475.600098 3684.240234 1532.720093 3636.640137 L 1532.720093 3636.640137 1646.960083 3741.360107 L 1646.960083 3741.360107 1675.520020 3893.680176 L 1675.520020 3893.680176 1723.120117 4207.840332 L 1723.120117 4207.840332 1580.320068 4769.520020 L 1580.320068 4769.520020 1586.440430 5415.175293 L 1586.440430 5415.175293 1627.920044 5702.480469 L 1627.920044 5702.480469 1675.520020 5778.640137 L 1675.520020 5778.640137 1856.400146 5750.080078 L 1856.400146 5750.080078 2256.239990 5769.120117 L 2256.239990 5769.120117 2722.720215 5740.560059 L 2722.720215 5740.560059 3179.680176 5540.640137 L 3179.680176 5540.640137 3084.480225 5340.720215 L 3084.480225 5340.720215 2836.960205 5055.120117 L 2836.960205 5055.120117 3322.480225 5036.080078 L 3322.480225 5036.080078 3332.000244 6073.760254 L 3332.000244 6073.760254 1056.720093 6111.840332 L 1056.720093 6111.840332 1066.239990 4845.680176 L 1066.239990 4845.680176 561.680054 4255.440430 L 561.680054 4255.440430 -209.058395 3996.769775 L -209.058395 3996.769775 -199.920013 2589.440186 L -199.920013 2589.440186 -199.920013 885.360046 L -199.920013 885.360046 Z" fill="#cccccc" stroke="#000000" stroke-width="2"/>
<path d="M 1447.040039 837.760010 1323.280029 913.920044 L 1323.280029 913.920044 1304.240112 990.080078 L 1304.240112 990.080078 1332.800049 1066.239990 L 1332.800049 1066.239990 1313.760010 1151.920044 L 1313.760010 1151.920044 1351.840088 1285.200073 L 1351.840088 1285.200073 1408.960083 1418.480103 L 1408.960083 1418.480103 1389.920044 1608.880127 L 1389.920044 1608.880127 1475.600098 1675.520020 L 1475.600098 1675.520020 1523.200073 1865.920044 L 1523.200073 1865.920044 1532.720093 2046.800049 L 1532.720093 2046.800049 1332.800049 2103.920166 L 1332.800049 2103.920166 1237.600098 2056.320068 L 1237.600098 2056.320068 1180.480103 2170.560059 L 1180.480103 2170.560059 1313.760010 2418.080078 L 1313.760010 2418.080078 1456.560059 2494.240234 L 1456.560059 2494.240234 1618.400024 2579.920166 L 1618.400024 2579.920166 1570.800049 2760.800049 L 1570.800049 2760.800049 1370.880127 2808.400146 L 1370.880127 2808.400146 1047.200073 2684.640137 L 1047.200073 2684.640137 742.560059 2846.480225 L 742.560059 2846.480225 323.680023 2979.760254 L 323.680023 2979.760254 314.160004 3113.040039 L 314.160004 3113.040039 392.999939 3184.999756 L 392.999939 3184.999756 437.999939 3207.999512 L 437.999939 3207.999512 492.999969 3231.999756 L 492.999969 3231.999756 580.720032 3227.280273 L 580.720032 3227.280273 733.040039 3208.240234 L 733.040039 3208.240234 866.320068 3113.040039 L 866.320068 3113.040039 1266.160034 3151.120117 L 1266.160034 3151.120117 1580.320068 3217.760254 L 1580.320068 3217.760254 1837.360107 3398.640137 L 1837.360107 3398.640137 1951.600098 3531.920166 L 1951.600098 3531.920166 1837.360107 3712.800293 L 1837.360107 3712.800293 2018.240112 3969.840088 L 2018.240112 3969.840088 2037.280151 4588.640137 L 2037.280151 4588.640137 1989.680054 4940.880371 L 1989.680054 4940.880371 1970.640137 5121.760254 L 1970.640137 5121.760254 1980.160156 5197.920410 L 1980.160156 5197.920410 2018.240112 5331.200195 L 2018.240112 5331.200195 2151.520020 5359.760254 L 2151.520020 5359.760254 2294.320068 5236.000488 L 2294.320068 5236.000488 2560.880127 5064.640137 L 2560.880127 5064.640137 2789.360107 5055.120117 L 2789.360107 5055.120117 3341.520264 5064.640137 L 3341.520264 5064.640137 3370.080078 4664.800293 L 3370.080078 4664.800293 2608.480225 3436.720215 L 2608.480225 3436.720215 2399.040039 1132.880005 L 2399.040039 1132.880005 2313.360107 723.520020 L 2313.360107 723.520020 2170.560059 514.080017 L 2170.560059 514.080017 1999.200073 485.520020 L 1999.200073 485.520020 1923.040039 571.200012 L 1923.040039 571.200012 1865.920044 666.400024 L 1865.920044 666.400024 1827.840088 790.160034 L 1827.840088 790.160034 1685.040039 847.280029 L 1685.040039 847.280029 Z" fill="#cccccc" stroke="#000000" stroke-width="2"/>
<path d="M 504.560028 904.400024 942.480042 904.400024 L 942.480042 904.400024 980.560059 942.480042 L 980.560059 942.480042 999.600037 999.600037 L 999.600037 999.600037 980.560059 1037.680054 L 980.560059 1037.680054 961.520020 1094.800049 L 961.520020 1094.800049 971.040039 1151.920044 L 971.040039 1151.920044 999.600037 1218.560059 L 999.600037 1218.560059 961.520020 1304.240112 L 961.520020 1304.240112 1018.640076 1408.960083 L 1018.640076 1408.960083 1009.120056 1485.120117 L 1009.120056 1485.120117 932.960022 1694.560059 L 932.960022 1694.560059 942.480042 1742.160034 L 942.480042 1742.160034 1009.120056 1780.240112 L 1009.120056 1780.240112 1066.239990 1942.080078 L 1066.239990 1942.080078 1028.160034 1980.160156 L 1028.160034 1980.160156 961.520020 2103.920166 L 961.520020 2103.920166 866.320068 2132.479980 L 866.320068 2132.479980 913.920044 2341.920166 L 913.920044 2341.920166 914.999939 2468.999756 L 914.999939 2468.999756 846.999878 2521.999756 L 846.999878 2521.999756 723.520020 2598.960205 L 723.520020 2598.960205 504.560028 2589.440186 L 504.560028 2589.440186 142.800003 2760.800049 L 142.800003 2760.800049 -9.520000 3141.600098 L -9.520000 3141.600098 38.080002 3455.760254 L 38.080002 3455.760254 76.160004 3531.920166 L 76.160004 3531.920166 161.840012 3560.480225 L 161.840012 3560.480225 247.520020 3522.400146 L 247.520020 3522.400146 304.640015 3455.760254 L 304.640015 3455.760254 476.000031 3503.360107 L 476.000031 3503.360107 514.080017 3636.640137 L 514.080017 3636.640137 780.640015 3665.200195 L 780.640015 3665.200195 1123.360107 3608.080078 L 1123.360107 3608.080078 1475.600098 3684.240234 L 1475.600098 3684.240234 1532.720093 3636.640137 L 1532.720093 3636.640137 1646.960083 3741.360107 L 1646.960083 3741.360107 1675.520020 3893.680176 L 1675.520020 3893.680176 1723.120117 4207.840332 L 1723.120117 4207.840332 1580.320068 4769.520020 L 1580.320068 4769.520020 1586.440430 5415.175293 L 1586.440430 5415.175293 1627.920044 5702.480469 L 1627.920044 5702.480469 1675.520020 5778.640137 L 1675.520020 5778.640137 1856.400146 5750.080078 L 1856.400146 5750.080078 2256.239990 5769.120117 L 2256.239990 5769.120117 2722.720215 5740.560059 L 2722.720215 5740.560059 3179.680176 5540.640137 L 3179.680176 5540.640137 3084.480225 5340.720215 L 3084.480225 5340.720215 2836.960205 5055.120117 L 2836.960205 5055.120117 3322.480225 5036.080078 L 3322.480225 5036.080078 3332.000244 6073.760254 L 3332.000244 6073.760254 1056.720093 6111.840332 L 1056.720093 6111.840332 1066.239990 4845.680176 L 1066.239990 4845.680176 561.680054 4255.440430 L 561.680054 4255.440430 -209.058395 3996.769775 L -209.058395 3996.769775 -199.920013 2589.440186 L -199.920013 2589.440186 -199.920013 885.360046 L -199.920013 885.360046 Z" fill="#cccccc" stroke="#000000" stroke-width="2"/>
<path d="M 1447.040039 837.760010 1323.280029 913.920044 L 1323.280029 913.920044 1304.240112 990.080078 L 1304.240112 990.080078 1332.800049 1066.239990 L 1332.800049 1066.239990 1313.760010 1151.920044 L 1313.760010 1151.920044 1351.840088 1285.200073 L 1351.840088 1285.200073 1408.960083 1418.480103 L 1408.960083 1418.480103 1389.920044 1608.880127 L 1389.920044 1608.880127 1475.600098 1675.520020 L 1475.600098 1675.520020 1523.200073 1865.920044 L 1523.200073 1865.920044 1532.720093 2046.800049 L 1532.720093 2046.800049 1332.800049 2103.920166 L 1332.800049 2103.920166 1237.600098 2056.320068 L 1237.600098 2056.320068 1180.480103 2170.560059 L 1180.480103 2170.560059 1313.760010 2418.080078 L 1313.760010 2418.080078 1456.560059 2494.240234 L 1456.560059 2494.240234 1618.400024 2579.920166 L 1618.400024 2579.920166 1570.800049 2760.800049 L 1570.800049 2760.800049 1370.880127 2808.400146 L 1370.880127 2808.400146 1047.200073 2684.640137 L 1047.200073 2684.640137 742.560059 2846.480225 L 742.560059 2846.480225 323.680023 2979.760254 L 323.680023 2979.760254 314.160004 3113.040039 L 314.160004 3113.040039 408.999969 3196.999756 L 408.999969 3196.999756 461.999939 3220.999756 L 461.999939 3220.999756 505.999939 3229.999756 L 505.999939 3229.999756 580.720032 3227.280273 L 580.720032 3227.280273 733.040039 3208.240234 L 733.040039 3208.240234 866.320068 3113.040039 L 866.320068 3113.040039 1266.160034 3151.120117 L 1266.160034 3151.120117 1580.320068 3217.760254 L 1580.320068 3217.760254 1837.360107 3398.640137 L 1837.360107 3398.640137 1951.600098 3531.920166 L 1951.600098 3531.920166 1837.360107 3712.800293 L 1837.360107 3712.800293 2018.240112 3969.840088 L 2018.240112 3969.840088 2037.280151 4588.640137 L 2037.280151 4588.640137 1989.680054 4940.880371 L 1989.680054 4940.880371 1970.640137 5121.760254 L 1970.640137 5121.760254 1980.160156 5197.920410 L 1980.160156 5197.920410 2018.240112 5331.200195 L 2018.240112 5331.200195 2151.520020 5359.760254 L 2151.520020 5359.760254 2294.320068 5236.000488 L 2294.320068 5236.000488 2560.880127 5064.640137 L 2560.880127 5064.640137 2789.360107 5055.120117 L 2789.360107 5055.120117 3341.520264 5064.640137 L 3341.520264 5064.640137 3370.080078 4664.800293 L 3370.080078 4664.800293 2608.480225 3436.720215 L 2608.480225 3436.720215 2399.040039 1132.880005 L 2399.040039 1132.880005 2313.360107 723.520020 L 2313.360107 723.520020 2170.560059 514.080017 L 2170.560059 514.080017 1999.200073 485.520020 L 1999.200073 485.520020 1923.040039 571.200012 L 1923.040039 571.200012 1865.920044 666.400024 L 1865.920044 666.400024 1827.840088 790.160034 L 1827.840088 790.160034 1685.040039 847.280029 L 1685.040039 847.280029 Z" fill="#cccccc" stroke="#000000" stroke-width="2"/>
</svg>